<?xml version="1.0" standalone="no"?><!DOCTYPE svg PUBLIC "-//W3C//DTD SVG 1.1//EN" "http://www.w3.org/Graphics/SVG/1.1/DTD/svg11.dtd"><svg class="icon" height="512" viewBox="0 0 1024 1024" version="1.1" xmlns="http://www.w3.org/2000/svg"><path d="M861.491301 403.255297c-23.310915-41.128723-80.365352-121.474632-205.16573-209.80233C516.436544 94.452185 421.275207 68.689429 375.958092 62.213947c-17.762549-2.553149-35.488259 4.53734-46.50108 18.699897l-42.203194 54.261834c0 0 69.381184-80.474846 327.448774 111.004163 0 0 210.896244 149.855006 213.678614 255.302617l30.996968-45.600571C870.068653 440.167998 870.858646 419.786809 861.491301 403.255297zM784.092513 453.439256c-24.39562-47.007617-93.142353-120.335692-187.907671-187.751105-33.358759-23.741727-66.679655-44.361347-98.604762-61.527308l69.169359 190.570313c37.867446 23.980157 84.975347 50.52472 115.945709 63.041802C740.45669 481.121735 766.503926 466.149742 784.092513 453.439256zM826.524928 658.731876c0-40.373523-26.166963-77.021188-70.425979-105.988939 18.909675-1.065262 33.081443-6.814196 40.934295-17.836227 11.178597-15.724123 8.137331-40.026622-6.354731-69.251224-17.588587 12.710486-53.463656 27.727505-111.225197 4.371564-86.950328-35.141358-220.154096-127.647215-292.298206-209.0502-52.674687-59.433624-28.444842-92.919273-11.517311-106.678648-48.081065-12.343119-84.131119-9.826809-98.651834 10.580986-32.879851 46.207391 56.889685 166.498058 200.499453 268.666996 31.595602 22.48306 63.171762 42.211381 93.553723 58.83499-25.66145-3.103688-52.516074-4.77577-80.290651-4.77577-188.283224 0-335.769276 75.165933-335.769276 171.126472 0 6.870478 0.844228 13.630439 2.314719 20.271696l10.029424 146.172127c1.092891 15.888875 8.357342 30.695093 20.334117 41.202401 36.224016 31.806403 127.684054 92.755544 298.756291 95.574752l-0.036839 0.183172c2.635013 0 5.152347-0.073678 7.752568-0.101307 2.588965 0.026606 5.087878 0.101307 7.733125 0.101307l0.008186-0.183172c171.540911-2.820232 259.722276-63.741743 294.210765-95.556333 11.323906-10.44284 18.156522-24.835641 19.213597-40.200584l11.489682-167.463036c-0.092098 0.303922-0.210801 0.571005-0.293689 0.88209C826.488089 659.320277 826.524928 659.026588 826.524928 658.731876zM798.779004 658.731876c0 30.622438-21.960151 59.34255-58.709123 82.937944-8.797363-15.816221-31.253818-53.142337-62.46261-82.937944-32.43062-30.960129-169.446203-113.731274-249.462608-140.247184 20.298302-2.038426 41.238216-3.122107 62.602803-3.122107C657.722384 515.361561 798.779004 581.012793 798.779004 658.731876zM265.871835 561.927109c17.983583-2.240017 44.581358-0.293689 80.585363 15.402805 87.234807 38.052664 241.168712 121.852232 270.504854 211.657584-38.750559 8.377808-81.532945 13.115716-126.21561 13.115716-166.957523 0-308.013119-65.650209-308.013119-143.371338C182.733323 621.819175 214.585775 587.653027 265.871835 561.927109zM341.461417 840.706417c-22.584368-4.91494-62.215994-15.300474-93.352131-32.834826-8.43102-4.749164-14.511505-12.784164-16.58677-22.227234l-4.334725-19.783579c39.658232 25.495674 93.498464 44.857651 156.00917 55.291281l-11.223622 10.873652C363.890242 839.851956 352.464005 843.104023 341.461417 840.706417z" /></svg>