<?xml version="1.0" standalone="no"?><!DOCTYPE svg PUBLIC "-//W3C//DTD SVG 1.1//EN" "http://www.w3.org/Graphics/SVG/1.1/DTD/svg11.dtd"><svg class="icon" height="512" viewBox="0 0 1434 1024" version="1.1" xmlns="http://www.w3.org/2000/svg"><path d="M1401.173333 419.84C1390.933333 416.426667 1373.866667 413.013333 1351.68 409.6 1293.653333 399.36 1230.506667 395.946667 1169.066667 402.773333 1169.066667 343.04 1160.533333 281.6 1148.586667 221.866667 1143.466667 199.68 1140.053333 180.906667 1134.933333 162.133333 1131.52 151.893333 1129.813333 143.36 1128.106667 139.946667 1122.986667 124.586667 1107.626667 116.053333 1092.266667 121.173333 1088.853333 122.88 1082.026667 124.586667 1073.493333 128 1058.133333 133.12 1042.773333 139.946667 1024 146.773333 976.213333 167.253333 926.72 194.56 880.64 228.693333 870.4 206.506667 858.453333 184.32 844.8 162.133333 820.906667 124.586667 797.013333 90.453333 773.12 59.733333 764.586667 49.493333 756.053333 39.253333 749.226667 32.426667 744.106667 27.306667 740.693333 23.893333 738.986667 22.186667 727.04 10.24 708.266667 10.24 696.32 22.186667 694.613333 23.893333 691.2 27.306667 686.08 32.426667 679.253333 40.96 670.72 49.493333 662.186667 59.733333 638.293333 90.453333 612.693333 124.586667 590.506667 162.133333 576.853333 184.32 564.906667 206.506667 554.666667 228.693333 508.586667 196.266667 460.8 168.96 411.306667 146.773333 394.24 138.24 377.173333 133.12 361.813333 128 353.28 124.586667 346.453333 122.88 343.04 121.173333 327.68 116.053333 312.32 126.293333 307.2 139.946667 305.493333 143.36 303.786667 151.893333 300.373333 162.133333 295.253333 179.2 290.133333 199.68 286.72 221.866667 274.773333 281.6 267.946667 341.333333 266.24 402.773333 203.093333 397.653333 141.653333 401.066667 83.626667 409.6 59.733333 413.013333 42.666667 418.133333 34.133333 419.84 20.48 423.253333 10.24 436.906667 11.946667 452.266667 11.946667 457.386667 13.653333 464.213333 15.36 476.16 18.773333 494.933333 22.186667 515.413333 27.306667 537.6 42.666667 600.746667 63.146667 663.893333 92.16 723.626667 131.413333 807.253333 182.613333 875.52 245.76 923.306667 288.426667 955.733333 337.92 979.626667 392.533333 994.986667 484.693333 1020.586667 583.68 1020.586667 674.133333 1005.226667 691.2 1001.813333 706.56 998.4 715.093333 996.693333 725.333333 998.4 738.986667 1001.813333 757.76 1005.226667 849.92 1020.586667 947.2 1020.586667 1039.36 994.986667 1092.266667 979.626667 1141.76 955.733333 1186.133333 923.306667 1249.28 873.813333 1300.48 805.546667 1339.733333 721.92 1368.746667 662.186667 1389.226667 599.04 1404.586667 535.893333 1409.706667 513.706667 1414.826667 493.226667 1416.533333 474.453333 1418.24 462.506667 1419.946667 455.68 1419.946667 450.56 1423.36 438.613333 1414.826667 424.96 1401.173333 419.84L1401.173333 419.84ZM909.653333 279.893333C952.32 247.466667 1000.106667 221.866667 1046.186667 201.386667 1058.133333 196.266667 1068.373333 192.853333 1078.613333 187.733333 1082.026667 201.386667 1085.44 216.746667 1088.853333 233.813333 1109.333333 332.8 1114.453333 436.906667 1097.386667 532.48 1088.853333 576.853333 1076.906667 617.813333 1059.84 653.653333 1025.706667 725.333333 972.8 786.773333 904.533333 836.266667 875.52 858.453333 843.093333 877.226667 810.666667 894.293333 820.906667 878.933333 831.146667 863.573333 841.386667 846.506667 907.946667 737.28 947.2 621.226667 947.2 503.466667 947.2 428.373333 930.133333 354.986667 902.826667 281.6 906.24 281.6 907.946667 279.893333 909.653333 279.893333L909.653333 279.893333ZM640 192.853333C662.186667 157.013333 684.373333 124.586667 708.266667 97.28 711.68 93.866667 713.386667 90.453333 716.8 87.04 720.213333 90.453333 721.92 93.866667 725.333333 97.28 749.226667 126.293333 771.413333 157.013333 793.6 192.853333 855.04 293.546667 890.88 399.36 890.88 505.173333 890.88 610.986667 855.04 716.8 793.6 817.493333 771.413333 853.333333 749.226667 885.76 725.333333 913.066667 721.92 916.48 720.213333 919.893333 716.8 923.306667 713.386667 919.893333 711.68 916.48 708.266667 913.066667 684.373333 884.053333 662.186667 853.333333 640 817.493333 578.56 716.8 542.72 610.986667 542.72 505.173333 542.72 399.36 578.56 293.546667 640 192.853333L640 192.853333ZM344.746667 233.813333C348.16 216.746667 351.573333 201.386667 354.986667 187.733333 365.226667 191.146667 375.466667 196.266667 387.413333 201.386667 433.493333 221.866667 481.28 247.466667 523.946667 279.893333 525.653333 281.6 527.36 281.6 529.066667 283.306667 500.053333 354.986667 484.693333 430.08 484.693333 505.173333 484.693333 622.933333 523.946667 738.986667 590.506667 848.213333 600.746667 865.28 610.986667 880.64 621.226667 896 588.8 878.933333 558.08 860.16 527.36 837.973333 459.093333 786.773333 406.186667 727.04 372.053333 655.36 354.986667 617.813333 343.04 576.853333 334.506667 534.186667 317.44 436.906667 324.266667 332.8 344.746667 233.813333L344.746667 233.813333ZM409.6 938.666667C363.52 925.013333 320.853333 904.533333 283.306667 877.226667 228.693333 834.56 182.613333 773.12 146.773333 698.026667 121.173333 643.413333 100.693333 583.68 85.333333 523.946667 80.213333 505.173333 76.8 488.106667 75.093333 472.746667 80.213333 471.04 87.04 471.04 93.866667 469.333333 150.186667 459.093333 208.213333 457.386667 267.946667 462.506667 269.653333 489.813333 273.066667 517.12 276.48 542.72 285.013333 592.213333 298.666667 638.293333 319.146667 679.253333 356.693333 761.173333 418.133333 829.44 493.226667 885.76 530.773333 913.066667 568.32 936.96 609.28 955.733333 541.013333 960.853333 472.746667 957.44 409.6 938.666667L409.6 938.666667ZM1286.826667 698.026667C1250.986667 773.12 1204.906667 834.56 1150.293333 877.226667 1112.746667 906.24 1070.08 926.72 1024 940.373333 960.853333 959.146667 892.586667 962.56 826.026667 957.44 865.28 938.666667 904.533333 914.773333 942.08 887.466667 1017.173333 831.146667 1076.906667 762.88 1116.16 680.96 1136.64 638.293333 1150.293333 592.213333 1158.826667 544.426667 1163.946667 517.12 1167.36 491.52 1167.36 464.213333 1227.093333 457.386667 1285.12 460.8 1341.44 471.04 1348.266667 472.746667 1353.386667 472.746667 1360.213333 474.453333 1356.8 489.813333 1353.386667 506.88 1349.973333 525.653333 1332.906667 583.68 1314.133333 643.413333 1286.826667 698.026667L1286.826667 698.026667Z" /></svg>