<svg width="277" height="203" viewBox="0 0 277 203" fill="none" xmlns="http://www.w3.org/2000/svg">
<rect width="277" height="203" fill="white"/>
<g filter="url(#filter0_d)">
<circle cx="138.5" cy="98.5" r="57.5" fill="white"/>
</g>
<path d="M152.456 62.312L155.144 60.68C155.528 58.696 154.76 57.704 152.84 57.704C150.088 57.704 148.712 59.816 148.712 64.04C148.712 65.704 148.936 67.624 149.384 69.8C154.248 73.064 156.68 77.256 156.68 82.376C156.68 87.432 154.92 91.368 151.4 94.184C147.88 97 143.112 98.408 137.096 98.408C134.6 98.408 132.008 98.152 129.32 97.64C126.504 99.432 125.096 100.776 125.096 101.672C125.096 102.568 127.144 103.016 131.24 103.016H141.032C155.56 103.016 162.824 108.232 162.824 118.664C162.824 124.296 160.616 128.744 156.2 132.008C151.848 135.336 145.032 137 135.752 137C119.944 137 112.04 133.576 112.04 126.728C112.04 123.016 114.504 120.456 119.432 119.048L125.192 121.64C124.68 123.496 124.424 125.256 124.424 126.92C124.424 132.424 128.52 135.176 136.712 135.176C141.704 135.176 145.544 134.248 148.232 132.392C150.92 130.536 152.264 128.232 152.264 125.48C152.264 122.728 151.432 120.872 149.768 119.912C148.168 119.016 144.936 118.568 140.072 118.568H130.76C125.576 118.568 121.864 117.704 119.624 115.976C117.384 114.248 116.264 112.136 116.264 109.64C116.264 107.08 117.064 104.968 118.664 103.304C120.264 101.576 123.112 99.464 127.208 96.968C119.784 94.856 116.072 89.992 116.072 82.376C116.072 77.576 117.8 73.704 121.256 70.76C124.712 67.816 129.896 66.344 136.808 66.344C140.968 66.344 144.52 67.144 147.464 68.744C147.08 67.016 146.888 65.448 146.888 64.04C146.888 60.456 147.848 57.864 149.768 56.264C151.688 54.664 153.832 53.864 156.2 53.864C158.568 53.864 160.456 54.504 161.864 55.784C163.336 57 164.072 58.696 164.072 60.872C164.072 63.048 163.496 64.68 162.344 65.768C161.192 66.792 159.784 67.304 158.12 67.304C156.52 67.304 155.176 66.888 154.088 66.056C153.064 65.16 152.52 63.912 152.456 62.312ZM132.104 80.264V85.448C132.104 89.736 132.456 92.648 133.16 94.184C133.928 95.72 135.048 96.488 136.52 96.488C138.056 96.488 139.144 95.752 139.784 94.28C140.488 92.744 140.84 89.64 140.84 84.968V80.264C140.84 75.272 140.52 72.008 139.88 70.472C139.24 68.872 138.152 68.072 136.616 68.072C135.144 68.072 134.024 68.904 133.256 70.568C132.488 72.168 132.104 75.4 132.104 80.264Z" fill="black"/>
<defs>
<filter id="filter0_d" x="77" y="41" width="123" height="123" filterUnits="userSpaceOnUse" color-interpolation-filters="sRGB">
<feFlood flood-opacity="0" result="BackgroundImageFix"/>
<feColorMatrix in="SourceAlpha" type="matrix" values="0 0 0 0 0 0 0 0 0 0 0 0 0 0 0 0 0 0 127 0"/>
<feOffset dy="4"/>
<feGaussianBlur stdDeviation="2"/>
<feColorMatrix type="matrix" values="0 0 0 0 0 0 0 0 0 0 0 0 0 0 0 0 0 0 0.25 0"/>
<feBlend mode="normal" in2="BackgroundImageFix" result="effect1_dropShadow"/>
<feBlend mode="normal" in="SourceGraphic" in2="effect1_dropShadow" result="shape"/>
</filter>
</defs>
</svg>
